<?xml version="1.0" standalone="no"?>
<!DOCTYPE svg PUBLIC "-//W3C//DTD SVG 20010904//EN"
 "http://www.w3.org/TR/2001/REC-SVG-20010904/DTD/svg10.dtd">
<svg version="1.0" xmlns="http://www.w3.org/2000/svg"
 width="180.000000pt" height="180.000000pt" viewBox="0 0 180.000000 180.000000"
 preserveAspectRatio="xMidYMid meet">
<metadata>
Created by potrace 1.14, written by Peter Selinger 2001-2017
</metadata>
<g transform="translate(0.000000,180.000000) scale(0.100000,-0.100000)"
fill="#000000" stroke="none">
<path d="M0 900 l0 -900 900 0 900 0 0 900 0 900 -900 0 -900 0 0 -900z m1280
-98 c-37 -247 -241 -402 -467 -356 -73 15 -125 43 -185 101 -78 76 -128 195
-128 305 l0 48 55 0 c54 0 55 -1 55 -28 0 -15 5 -33 11 -39 20 -20 39 -3 39
34 l0 34 56 -3 57 -3 12 -48 c14 -56 36 -82 81 -97 71 -24 125 24 136 120 l3
25 135 5 c103 4 137 2 143 -8 5 -7 3 -47 -3 -90z"/>
<path d="M1074 813 c-15 -51 -43 -89 -81 -112 -46 -28 -52 -45 -26 -73 14 -16
15 -22 5 -36 -39 -55 -23 -69 49 -42 75 27 149 101 177 175 28 72 29 105 3
105 -10 0 -24 -7 -31 -15 -7 -8 -18 -15 -25 -15 -7 0 -18 7 -25 15 -17 20 -39
19 -46 -2z m-44 -133 c0 -5 -2 -10 -4 -10 -3 0 -8 5 -11 10 -3 6 -1 10 4 10 6
0 11 -4 11 -10z m25 -31 c11 -17 -1 -21 -15 -4 -8 9 -8 15 -2 15 6 0 14 -5 17
-11z"/>
<path d="M644 776 c-9 -23 24 -76 46 -76 24 0 25 9 3 55 -17 36 -40 46 -49 21z"/>
<path d="M720 656 c0 -17 46 -56 66 -56 27 0 26 24 -2 47 -33 26 -64 30 -64 9z"/>
<path d="M845 600 c-9 -15 4 -30 26 -30 12 0 19 7 19 20 0 21 -33 29 -45 10z"/>
</g>
</svg>
